<svg
  width="16"
  height="16"
  viewBox="0 0 16 16"
  fill="none"
  xmlns="http://www.w3.org/2000/svg"
>
  <path
    d="M2 5.99996C2 5.64634 2.14048 5.3072 2.39052 5.05715C2.64057 4.8071 2.97971 4.66663 3.33333 4.66663H3.95333C4.17279 4.66666 4.38886 4.61252 4.58238 4.50902C4.77589 4.40552 4.94087 4.25585 5.06267 4.07329L5.604 3.25996C5.7258 3.0774 5.89077 2.92774 6.08429 2.82423C6.27781 2.72073 6.49388 2.66659 6.71333 2.66663H9.28667C9.50612 2.66659 9.7222 2.72073 9.91571 2.82423C10.1092 2.92774 10.2742 3.0774 10.396 3.25996L10.9373 4.07329C11.0591 4.25585 11.2241 4.40552 11.4176 4.50902C11.6111 4.61252 11.8272 4.66666 12.0467 4.66663H12.6667C13.0203 4.66663 13.3594 4.8071 13.6095 5.05715C13.8595 5.3072 14 5.64634 14 5.99996V12C14 12.3536 13.8595 12.6927 13.6095 12.9428C13.3594 13.1928 13.0203 13.3333 12.6667 13.3333H3.33333C2.97971 13.3333 2.64057 13.1928 2.39052 12.9428C2.14048 12.6927 2 12.3536 2 12V5.99996Z"
    stroke="currentColor"
    stroke-width="1.5"
    stroke-linecap="round"
    stroke-linejoin="round"
  />
  <path
    d="M10 8.66663C10 9.19706 9.78929 9.70577 9.41421 10.0808C9.03914 10.4559 8.53043 10.6666 8 10.6666C7.46957 10.6666 6.96086 10.4559 6.58579 10.0808C6.21071 9.70577 6 9.19706 6 8.66663C6 8.13619 6.21071 7.62748 6.58579 7.25241C6.96086 6.87734 7.46957 6.66663 8 6.66663C8.53043 6.66663 9.03914 6.87734 9.41421 7.25241C9.78929 7.62748 10 8.13619 10 8.66663V8.66663Z"
    stroke="currentColor"
    stroke-width="1.5"
    stroke-linecap="round"
    stroke-linejoin="round"
  />
</svg>
