<svg
        width="16"
        height="16"
        viewBox="0 0 16 16"
        fill="none"
        xmlns="http://www.w3.org/2000/svg"
>
    <g>
        <path
                d="M13.545 2.99457C12.525 2.53457 11.4317 2.19457 10.2883 2.00123C10.2781 1.99928 10.2676 2.00054 10.2582 2.00484C10.2487 2.00914 10.2409 2.01627 10.2357 2.02523C10.0957 2.27123 9.93965 2.5919 9.83032 2.84523C8.61772 2.66406 7.38492 2.66406 6.17232 2.84523C6.05054 2.56447 5.91322 2.29072 5.76099 2.02523C5.75583 2.01616 5.74802 2.00887 5.73861 2.00434C5.7292 1.99981 5.71863 1.99827 5.70832 1.9999C4.56565 2.19323 3.47232 2.53323 2.45165 2.9939C2.44287 2.99758 2.43543 3.00387 2.43032 3.0119C0.355654 6.0619 -0.213013 9.03657 0.0663204 11.9739C0.0670977 11.9811 0.0693308 11.9881 0.0728837 11.9944C0.0764366 12.0007 0.0812351 12.0062 0.0869871 12.0106C1.29792 12.8922 2.64854 13.5638 4.08232 13.9972C4.09232 14.0003 4.10301 14.0003 4.113 13.9972C4.12299 13.9941 4.13181 13.9881 4.13832 13.9799C4.44685 13.5673 4.72025 13.1295 4.95565 12.6712C4.95892 12.665 4.9608 12.6581 4.96117 12.651C4.96155 12.644 4.9604 12.6369 4.95781 12.6303C4.95521 12.6238 4.95124 12.6178 4.94615 12.6129C4.94107 12.608 4.93498 12.6043 4.92832 12.6019C4.49766 12.4397 4.08038 12.244 3.68032 12.0166C3.67313 12.0125 3.66707 12.0066 3.66269 11.9996C3.65831 11.9926 3.65574 11.9846 3.65521 11.9763C3.65468 11.9681 3.65621 11.9598 3.65966 11.9523C3.66311 11.9448 3.66838 11.9382 3.67499 11.9332C3.75899 11.8712 3.84299 11.8066 3.92299 11.7419C3.93019 11.7361 3.93886 11.7324 3.94804 11.7312C3.95722 11.73 3.96655 11.7314 3.97499 11.7352C6.59299 12.9112 9.42832 12.9112 12.0157 11.7352C12.0241 11.7312 12.0335 11.7296 12.0428 11.7307C12.0522 11.7317 12.061 11.7354 12.0683 11.7412C12.1483 11.8066 12.2317 11.8712 12.3163 11.9332C12.323 11.9381 12.3283 11.9446 12.3319 11.952C12.3355 11.9595 12.3371 11.9677 12.3367 11.976C12.3363 11.9842 12.3339 11.9923 12.3296 11.9993C12.3254 12.0064 12.3194 12.0123 12.3123 12.0166C11.9137 12.2459 11.499 12.4399 11.0637 12.6012C11.057 12.6037 11.0509 12.6075 11.0458 12.6125C11.0407 12.6174 11.0367 12.6234 11.0341 12.63C11.0316 12.6367 11.0304 12.6438 11.0308 12.6509C11.0312 12.658 11.033 12.6649 11.0363 12.6712C11.2763 13.1292 11.551 13.5652 11.853 13.9792C11.8593 13.9877 11.868 13.9941 11.878 13.9974C11.8881 14.0008 11.8989 14.0009 11.909 13.9979C13.3452 13.5657 14.6981 12.8938 15.9103 12.0106C15.9162 12.0064 15.9212 12.0011 15.9249 11.9949C15.9286 11.9887 15.9309 11.9817 15.9317 11.9746C16.265 8.57857 15.373 5.6279 13.5657 3.01323C13.5612 3.00474 13.5539 2.99811 13.545 2.99457ZM5.34699 10.1852C4.55899 10.1852 3.90899 9.47257 3.90899 8.59857C3.90899 7.7239 4.54632 7.0119 5.34699 7.0119C6.15365 7.0119 6.79765 7.7299 6.78499 8.59857C6.78499 9.47323 6.14765 10.1852 5.34699 10.1852ZM10.6637 10.1852C9.87499 10.1852 9.22565 9.47257 9.22565 8.59857C9.22565 7.7239 9.86232 7.0119 10.6637 7.0119C11.4703 7.0119 12.1143 7.7299 12.1017 8.59857C12.1017 9.47323 11.471 10.1852 10.6637 10.1852Z"
                fill="currentColor"
        />
    </g>
    <defs>
        <clipPath id="clip0_147_167">
            <rect width="16" height="16" fill="white" />
        </clipPath>
    </defs>
</svg>
