<svg
        width="16"
        height="16"
        viewBox="0 0 16 16"
        fill="none"
        xmlns="http://www.w3.org/2000/svg"
>
    <path
            d="M14 8C14 9.5913 13.3679 11.1174 12.2426 12.2426C11.1174 13.3679 9.5913 14 8 14M14 8C14 6.4087 13.3679 4.88258 12.2426 3.75736C11.1174 2.63214 9.5913 2 8 2M14 8H2M8 14C6.4087 14 4.88258 13.3679 3.75736 12.2426C2.63214 11.1174 2 9.5913 2 8M8 14C9.10467 14 11 11.3133 11 8C11 4.68667 9.10467 2 8 2M8 14V2M8 14C6.89533 14 5 11.3133 5 8C5 4.68667 6.89533 2 8 2M8 2C6.4087 2 4.88258 2.63214 3.75736 3.75736C2.63214 4.88258 2 6.4087 2 8"
            stroke="currentColor"
            stroke-width="1.2"
            stroke-linecap="round"
            stroke-linejoin="round"/>
</svg>
