<svg width="32" height="32" viewBox="0 0 32 32" fill="none" xmlns="http://www.w3.org/2000/svg">
  <g clip-path="url(#clip0_806_2686)">
    <ellipse cx="16" cy="16.0156" rx="16" ry="16.0156" fill="currentColor"/>
    <path fill-rule="evenodd" clip-rule="evenodd" d="M10.6563 11.3187C10.6563 7.74448 13.6655 6 16 6C18.3345 6 21.3438 7.74448 21.3438 11.3187C21.3438 12.3338 21.0018 13.2348 20.6358 13.94C20.3705 14.4512 20.0497 14.9297 19.8338 15.2518C19.7628 15.3578 19.7032 15.4468 19.6605 15.5145L18.1708 14.5706C18.2527 14.4405 18.3398 14.3107 18.43 14.1762C18.6353 13.8702 18.8571 13.5395 19.073 13.1236C19.3703 12.5508 19.5817 11.9397 19.5817 11.3187C19.5817 9.01709 17.5656 7.76754 16 7.76754C14.4344 7.76754 12.4183 9.01709 12.4183 11.3187C12.4183 12.3321 13.0189 13.1438 13.9048 13.822C14.6438 14.3877 15.4563 14.7682 16.0482 15.0454C16.1709 15.1028 16.2841 15.1558 16.3852 15.2051L15.6148 16.7948C15.5423 16.7594 15.452 16.7174 15.3472 16.6686C14.7678 16.399 13.745 15.923 12.8358 15.2271C11.7559 14.4004 10.6563 13.1305 10.6563 11.3187ZM15.9518 16.9547C15.8292 16.8972 15.7159 16.8442 15.6148 16.7949L16.3852 15.2052C16.4577 15.2406 16.548 15.2826 16.6528 15.3314C17.2322 15.601 18.255 16.077 19.1642 16.7729C20.2441 17.5996 21.3437 18.8695 21.3437 20.6813C21.3437 24.2555 18.3345 26 16 26C13.6655 26 10.6562 24.2555 10.6562 20.6813C10.6562 19.6662 10.9982 18.7652 11.3642 18.06C11.6295 17.5488 11.9503 17.0703 12.1662 16.7482C12.2372 16.6422 12.2968 16.5532 12.3395 16.4855L13.8292 17.4294C13.7473 17.5595 13.6602 17.6893 13.57 17.8238C13.3647 18.1298 13.1429 18.4605 12.927 18.8764C12.6297 19.4492 12.4183 20.0603 12.4183 20.6813C12.4183 22.9829 14.4344 24.2325 16 24.2325C17.5656 24.2325 19.5817 22.9829 19.5817 20.6813C19.5817 19.6679 18.9811 18.8562 18.0952 18.178C17.3562 17.6123 16.5437 17.2318 15.9518 16.9547Z" fill="#17131A"/>
  </g>
  <defs>
    <clipPath id="clip0_806_2686">
      <rect width="32" height="32" fill="currentColor"/>
    </clipPath>
  </defs>
</svg>
