<svg width="32" height="32" viewBox="0 0 32 32" fill="none" xmlns="http://www.w3.org/2000/svg">
<path d="M10.8163 11.6337C10.0353 12.4147 10.0353 13.6811 10.8163 14.4621C11.5974 15.2432 12.8637 15.2432 13.6448 14.4621L10.8163 11.6337ZM24.0154 24.8328C23.2344 25.6138 23.2344 26.8802 24.0154 27.6612C24.7965 28.4422 26.0628 28.4422 26.8438 27.6612L24.0154 24.8328ZM13.6448 14.4621C16.5085 11.5983 21.1516 11.5983 24.0154 14.4621L26.8438 11.6337C22.418 7.20782 15.2422 7.20782 10.8163 11.6337L13.6448 14.4621ZM24.0154 14.4621C26.8792 17.3259 26.8792 21.969 24.0154 24.8328L26.8438 27.6612C31.2697 23.2353 31.2697 16.0596 26.8438 11.6337L24.0154 14.4621Z" fill="white"/>
<path d="M20.213 20.6133C20.994 19.8322 20.994 18.5659 20.213 17.7848C19.4319 17.0038 18.1656 17.0038 17.3845 17.7848L20.213 20.6133ZM7.01389 7.41417C7.79494 6.63313 7.79494 5.3668 7.01389 4.58575C6.23284 3.8047 4.96651 3.8047 4.18546 4.58575L7.01389 7.41417ZM17.3845 17.7848C14.5208 20.6486 9.87767 20.6486 7.01389 17.7848L4.18546 20.6133C8.61134 25.0391 15.7871 25.0391 20.213 20.6133L17.3845 17.7848ZM7.01389 17.7848C4.15011 14.9211 4.15011 10.278 7.01389 7.41417L4.18546 4.58575C-0.24041 9.01162 -0.24041 16.1874 4.18546 20.6133L7.01389 17.7848Z" fill="white"/>
</svg>
