<svg
  width="16"
  height="16"
  viewBox="0 0 16 16"
  fill="none"
  xmlns="http://www.w3.org/2000/svg"
>
  <path
    d="M13 13L9.66667 9.66667L13 13ZM10.7778 6.88889C10.7778 7.39959 10.6772 7.90528 10.4818 8.3771C10.2863 8.84892 9.99987 9.27763 9.63875 9.63875C9.27763 9.99987 8.84892 10.2863 8.3771 10.4818C7.90528 10.6772 7.39959 10.7778 6.88889 10.7778C6.37819 10.7778 5.8725 10.6772 5.40068 10.4818C4.92885 10.2863 4.50015 9.99987 4.13903 9.63875C3.77791 9.27763 3.49146 8.84892 3.29602 8.3771C3.10059 7.90528 3 7.39959 3 6.88889C3 5.85749 3.40972 4.86834 4.13903 4.13903C4.86834 3.40972 5.85749 3 6.88889 3C7.92029 3 8.90944 3.40972 9.63875 4.13903C10.3681 4.86834 10.7778 5.85749 10.7778 6.88889Z"
    stroke="currentColor"
    stroke-width="1.4"
    stroke-linecap="round"
    stroke-linejoin="round"
  />
</svg>
