<svg
        width="16"
        height="16"
        viewBox="0 0 16 16"
        fill="none"
        xmlns="http://www.w3.org/2000/svg"
>
    <path
            d="M15.7623 3.29122C15.2057 3.53789 14.6077 3.70456 13.979 3.77989C14.6277 3.39175 15.113 2.78087 15.3443 2.06122C14.7349 2.42321 14.0679 2.67802 13.3723 2.81456C12.9046 2.31513 12.285 1.98411 11.6099 1.87287C10.9347 1.76164 10.2417 1.87642 9.63849 2.19939C9.03525 2.52236 8.55552 3.03546 8.27377 3.65902C7.99202 4.28259 7.92402 4.98172 8.08033 5.64789C6.84546 5.58589 5.63742 5.26492 4.53462 4.70583C3.43181 4.14673 2.45889 3.362 1.679 2.40256C1.41233 2.86256 1.259 3.39589 1.259 3.96389C1.2587 4.47522 1.38462 4.97872 1.62559 5.42971C1.86655 5.8807 2.21511 6.26525 2.64033 6.54922C2.14718 6.53353 1.66492 6.40028 1.23367 6.16056V6.20055C1.23362 6.91772 1.48169 7.61281 1.93579 8.16789C2.38989 8.72297 3.02205 9.10384 3.725 9.24589C3.26752 9.3697 2.78789 9.38794 2.32233 9.29922C2.52066 9.9163 2.907 10.4559 3.42724 10.8425C3.94749 11.2291 4.57561 11.4433 5.22367 11.4552C4.12356 12.3188 2.76492 12.7873 1.36633 12.7852C1.11859 12.7853 0.871051 12.7708 0.625 12.7419C2.04465 13.6547 3.69723 14.1391 5.385 14.1372C11.0983 14.1372 14.2217 9.40522 14.2217 5.30122C14.2217 5.16789 14.2183 5.03322 14.2123 4.89989C14.8199 4.46054 15.3443 3.91649 15.761 3.29322L15.7623 3.29122Z"
            fill="currentColor"/>
</svg>
